<?xml version="1.0" encoding="UTF-8" standalone="no"?>
<svg
   xmlns:dc="http://purl.org/dc/elements/1.1/"
   xmlns:cc="http://creativecommons.org/ns#"
   xmlns:rdf="http://www.w3.org/1999/02/22-rdf-syntax-ns#"
   xmlns:svg="http://www.w3.org/2000/svg"
   xmlns="http://www.w3.org/2000/svg"
   xmlns:xlink="http://www.w3.org/1999/xlink"
   xmlns:sodipodi="http://sodipodi.sourceforge.net/DTD/sodipodi-0.dtd"
   xmlns:inkscape="http://www.inkscape.org/namespaces/inkscape"
   width="192"
   height="192"
   viewBox="0 0 50.799999 50.799999"
   version="1.1"
   id="svg8"
   inkscape:version="1.0.2 (e86c870879, 2021-01-15)"
   sodipodi:docname="5_noempty.svg"
   inkscape:export-filename="/home/hrq/.config/awesome/themes/dark/taglist/1_empty.png"
   inkscape:export-xdpi="96"
   inkscape:export-ydpi="96">
  <defs
     id="defs2">
    <linearGradient
       id="firefox-b"
       x1="44.017941"
       x2="75.088783"
       y1="144.35971"
       y2="73.385971"
       gradientTransform="scale(0.98864724,1.0114831)"
       gradientUnits="userSpaceOnUse">
      <stop
         offset="0%"
         stop-color="#FF837D"
         id="stop10" />
      <stop
         offset="100%"
         stop-color="#F8C18C"
         id="stop12" />
    </linearGradient>
    <path
       id="firefox-a"
       d="m 180.85648,81.906566 -3.11016,2.681417 c 0,-19.143407 -27.04096,-58.671854 -31.43882,-66.93896 -1.68953,2.45768 -3.39729,5.263416 -3.48586,8.267106 C 141.00482,23.0214 124.94671,10.560517 121.85269,0 112.2272,8.4430317 103.72622,32.361926 109.744,48.763614 c 6.01777,16.401689 19.30416,25.239218 19.40566,25.476354 22.12264,51.688172 -21.61222,69.707382 -45.775121,63.385052 -10.383055,-2.71678 -14.904898,-7.76453 -20.467849,-13.47452 9.749446,2.37635 16.921639,1.6572 24.379614,-0.85365 9.179713,-3.0905 9.944685,-8.54235 17.363836,-5.61924 2.78991,-0.38596 3.00365,-3.23229 2.06993,-5.78079 -1.34996,-1.89576 -3.39177,-3.61557 -6.01294,-5.13105 -5.720442,-3.01392 -12.06164,-1.17303 -22.336173,1.22237 -9.906975,2.30971 -27.820024,-12.752195 -18.247652,-23.400157 2.261011,0.65236 4.831486,1.602507 9.657585,3.021492 1.013429,-1.755591 1.941525,-8.304432 1.013429,-10.747096 4.533608,-4.359122 17.166963,-7.939883 17.459454,-9.625637 1.226212,-1.640346 4.201234,-9.511091 2.682531,-10.464649 -3.178025,0.175955 -24.956639,0 -22.38629,-9.848499 C 69.706188,43.62761 76.333493,34.714305 81.120219,31.444964 72.656136,29.44089 64.657636,33.062795 57.474735,38.251501 53.677979,36.882773 41.916634,35.11285 38.428428,36.882773 35.280484,35.662503 29.560917,31.191814 27.907219,20.106703 25.149761,22.649818 17.48786,29.796007 15.896925,50.359514 7.7023651,59.621415 2.0046937,78.62393 2.1959377,79.305043 L 6.6985598,71.660084 C 4.7539081,78.226253 1.2377426,96.103875 0.59651267,101.58683 L 3.8476611,94.152024 c 0,0 -1.2118642,20.149156 6.9307749,37.977216 8.142638,17.82806 23.385689,31.76512 34.365346,38.15623 7.891629,4.7167 25.098219,14.20313 43.109991,14.13782 18.011777,-0.0653 43.186767,-2.25833 52.294417,-17.30253 7.669,-4.51569 14.22939,-8.21329 19.04584,-12.68801 8.72866,-8.10934 10.52212,-16.18613 10.00889,-22.30351 7.87678,-15.40328 11.25356,-33.561215 11.25356,-50.222674 z m -19.29437,-9.451851 -0.0394,0.743548 0.0281,-0.749224 0.0112,0.0057 z" />
    <linearGradient
       id="firefox-d"
       x1="39.419472"
       x2="38.300323"
       y1="192.83958"
       y2="194.13196"
       gradientTransform="scale(1.6395728,0.60991498)"
       gradientUnits="userSpaceOnUse">
      <stop
         offset="0%"
         stop-color="#FF837D"
         id="stop16" />
      <stop
         offset="100%"
         stop-color="#FF837D"
         id="stop18" />
    </linearGradient>
    <linearGradient
       id="firefox-b-2"
       x1="44.017939"
       x2="75.08878"
       y1="144.35971"
       y2="73.38597"
       gradientTransform="scale(0.98864724,1.0114831)"
       gradientUnits="userSpaceOnUse">
      <stop
         offset="0%"
         stop-color="#FF837D"
         id="stop1343" />
      <stop
         offset="100%"
         stop-color="#F8C18C"
         id="stop1345" />
    </linearGradient>
    <path
       id="firefox-a-1"
       d="M180.856476,81.9065664 L177.746323,84.5879829 C177.746323,65.4445758 150.705356,25.9161294 146.307501,17.6490231 C144.617969,20.1067035 142.910209,22.9124394 142.82164,25.9161294 C141.004822,23.0214 124.946712,10.5605173 121.852694,-3.63797881e-12 C112.227201,8.4430317 103.72622,32.3619261 109.743996,48.7636144 C115.761771,65.1653028 129.048165,74.002832 129.14966,74.2399682 C151.2723,125.928139 107.537438,143.947352 83.3745388,137.625019 C72.9914836,134.908245 68.4696414,129.860491 62.9066902,124.150496 C72.6561358,126.526855 79.8283294,125.807702 87.2863036,123.296852 C96.4660167,120.20635 97.2309886,114.754503 104.650136,117.677612 C107.440049,117.291648 107.653792,114.445319 106.720071,111.896822 C105.370113,110.001058 103.328302,108.281248 100.707134,106.765772 C94.986688,103.751848 88.6454896,105.592738 78.3709572,107.988138 C68.4639817,110.297846 50.5509328,95.2359447 60.1233047,84.5879829 C62.384316,85.2403433 64.9547913,86.19049 69.7808905,87.6094749 C70.794319,85.8538841 71.722415,79.3050429 70.794319,76.8623792 C75.3279273,72.5032574 87.9612825,68.9224964 88.2537734,67.2367423 C89.4799851,65.5963956 92.4550067,57.7256514 90.9363041,56.7720935 C87.7582785,56.9480476 65.9796654,56.7720935 68.5500141,46.9235945 C69.7061884,43.6276103 76.3334932,34.7143053 81.1202186,31.4449639 C72.6561358,29.4408903 64.6576358,33.0627953 57.4747352,38.2515014 C53.6779789,36.8827733 41.9166341,35.1128502 38.4284283,36.8827733 C35.2804835,35.6625025 29.560917,31.1918142 27.9072187,20.1067035 C25.1497606,22.6498185 17.4878598,29.7960068 15.8969252,50.3595139 C7.70236512,59.6214152 2.00469366,78.6239301 2.19593769,79.3050429 L6.69855981,71.6600838 C4.75390809,78.2262528 1.23774263,96.1038747 0.59651267,101.586833 L3.84766107,94.1520238 C3.84766107,94.1520238 2.63579689,114.301176 10.7784356,132.129237 C18.9210743,149.957298 34.1641253,163.894358 45.1437822,170.285467 C53.0354106,175.002173 70.2420009,184.488601 88.2537734,184.423294 C106.265546,184.357987 131.44054,182.164958 140.548186,167.120763 C148.217195,162.605075 154.777579,158.907468 159.594032,154.432753 C168.322695,146.323407 170.116153,138.246617 169.602916,132.129237 C177.479696,116.725959 180.856476,98.5680245 180.856476,81.9065664 Z M161.562107,72.4547154 L161.522734,73.1982635 L161.550858,72.4490394 L161.562107,72.4547154 L161.562107,72.4547154 Z" />
    <linearGradient
       id="firefox-d-0"
       x1="39.41947"
       x2="38.300322"
       y1="192.83958"
       y2="194.13196"
       gradientTransform="scale(1.6395728,0.60991498)"
       gradientUnits="userSpaceOnUse">
      <stop
         offset="0%"
         stop-color="#FF837D"
         id="stop1349" />
      <stop
         offset="100%"
         stop-color="#FF837D"
         id="stop1351" />
    </linearGradient>
    <style
       type="text/css"
       id="style228"><![CDATA[
    .fil1 {fill:none}
    .fil0 {fill:#212121;fill-rule:nonzero}
   ]]></style>
    <mask
       id="mask0"
       mask-type="alpha"
       maskUnits="userSpaceOnUse"
       x="0"
       y="0"
       width="256"
       height="256">
      <path
         style="clip-rule:evenodd;fill:#ffffff;fill-rule:evenodd"
         inkscape:connector-curvature="0"
         d="m 181.534,254.252 c 4.032,1.571 8.63,1.47 12.7,-0.488 l 52.706,-25.361 c 5.538,-2.665 9.06,-8.271 9.06,-14.42 V 42.0181 c 0,-6.1492 -3.522,-11.7543 -9.06,-14.4193 L 194.234,2.23681 c -5.341,-2.569942 -11.592,-1.940466 -16.279,1.46737 -0.67,0.48682 -1.308,1.03036 -1.906,1.62936 L 75.149,97.3862 31.1992,64.0247 C 27.1079,60.9191 21.3853,61.1735 17.5855,64.63 L 3.48936,77.4525 c -4.64789,4.228 -4.65322,11.5401 -0.01151,15.7749 L 41.5926,128 3.47785,162.773 c -4.64171,4.235 -4.63638,11.547 0.01151,15.775 L 17.5855,191.37 c 3.7998,3.457 9.5224,3.711 13.6137,0.606 l 43.9498,-33.362 100.9,92.053 c 1.596,1.597 3.47,2.8 5.485,3.585 z M 192.039,69.8853 115.479,128 l 76.56,58.115 z"
         id="path912" />
    </mask>
    <filter
       style="color-interpolation-filters:sRGB"
       id="filter0_d"
       x="-21.489599"
       y="40.522499"
       width="298.82199"
       height="236.149"
       filterUnits="userSpaceOnUse">
      <feFlood
         flood-opacity="0"
         result="BackgroundImageFix"
         id="feFlood931" />
      <feColorMatrix
         in="SourceAlpha"
         type="matrix"
         values="0 0 0 0 0 0 0 0 0 0 0 0 0 0 0 0 0 0 127 0"
         id="feColorMatrix933" />
      <feOffset
         id="feOffset935" />
      <feGaussianBlur
         stdDeviation="10.6667"
         id="feGaussianBlur937" />
      <feColorMatrix
         type="matrix"
         values="0 0 0 0 0 0 0 0 0 0 0 0 0 0 0 0 0 0 0.25 0"
         id="feColorMatrix939" />
      <feBlend
         mode="overlay"
         in2="BackgroundImageFix"
         result="effect1_dropShadow"
         id="feBlend941" />
      <feBlend
         mode="normal"
         in="SourceGraphic"
         in2="effect1_dropShadow"
         result="shape"
         id="feBlend943" />
    </filter>
    <filter
       style="color-interpolation-filters:sRGB"
       id="filter1_d"
       x="154.66701"
       y="-20.6735"
       width="122.667"
       height="297.34698"
       filterUnits="userSpaceOnUse">
      <feFlood
         flood-opacity="0"
         result="BackgroundImageFix"
         id="feFlood946" />
      <feColorMatrix
         in="SourceAlpha"
         type="matrix"
         values="0 0 0 0 0 0 0 0 0 0 0 0 0 0 0 0 0 0 127 0"
         id="feColorMatrix948" />
      <feOffset
         id="feOffset950" />
      <feGaussianBlur
         stdDeviation="10.6667"
         id="feGaussianBlur952" />
      <feColorMatrix
         type="matrix"
         values="0 0 0 0 0 0 0 0 0 0 0 0 0 0 0 0 0 0 0.25 0"
         id="feColorMatrix954" />
      <feBlend
         mode="overlay"
         in2="BackgroundImageFix"
         result="effect1_dropShadow"
         id="feBlend956" />
      <feBlend
         mode="normal"
         in="SourceGraphic"
         in2="effect1_dropShadow"
         result="shape"
         id="feBlend958" />
    </filter>
    <linearGradient
       id="paint0_linear"
       x1="127.844"
       y1="0.65998799"
       x2="127.844"
       y2="255.34"
       gradientUnits="userSpaceOnUse">
      <stop
         stop-color="white"
         id="stop961" />
      <stop
         offset="1"
         stop-color="white"
         stop-opacity="0"
         id="stop963" />
    </linearGradient>
    <clipPath
       id="clip0">
      <rect
         width="192"
         height="192"
         fill="white"
         id="rect3989" />
    </clipPath>
    <radialGradient
       cx="23"
       cy="33.9375"
       r="18.25"
       fx="23"
       fy="33.9375"
       id="radialGradient6498"
       xlink:href="#linearGradient6492"
       gradientUnits="userSpaceOnUse"
       gradientTransform="matrix(3.9126088,0,0,1.7017189,6.1731749,64.100509)" />
    <linearGradient
       id="linearGradient6492">
      <stop
         style="stop-color:black;stop-opacity:1"
         offset="0"
         id="stop6494" />
      <stop
         style="stop-color:black;stop-opacity:0"
         offset="1"
         id="stop6496" />
    </linearGradient>
    <radialGradient
       cx="18.557627"
       cy="22.300018"
       r="19.2292"
       fx="18.557627"
       fy="22.300018"
       id="radialGradient4354"
       xlink:href="#linearGradient6500"
       gradientUnits="userSpaceOnUse"
       gradientTransform="matrix(6.9360773,0,0,5.0734016,-58.249494,-28.992037)" />
    <linearGradient
       id="linearGradient6500">
      <stop
         style="stop-color:#857c63;stop-opacity:1"
         offset="0"
         id="stop6502" />
      <stop
         style="stop-color:#221f19;stop-opacity:1"
         offset="1"
         id="stop6504" />
    </linearGradient>
    <linearGradient
       x1="32.350136"
       y1="28.083355"
       x2="21.213203"
       y2="30.293064"
       id="linearGradient4351"
       xlink:href="#linearGradient6492"
       gradientUnits="userSpaceOnUse"
       gradientTransform="matrix(3.9126088,0,0,3.9126088,-9.3268166,-1.7527285)" />
    <linearGradient
       x1="14.96875"
       y1="19.110678"
       x2="39.524544"
       y2="46.98568"
       id="linearGradient8530"
       xlink:href="#linearGradient8524"
       gradientUnits="userSpaceOnUse"
       gradientTransform="matrix(3.9126088,0,0,3.9126088,5.6840988,-3.1063777)" />
    <linearGradient
       id="linearGradient8524">
      <stop
         style="stop-color:white;stop-opacity:1"
         offset="0"
         id="stop8526" />
      <stop
         style="stop-color:white;stop-opacity:0"
         offset="1"
         id="stop8528" />
    </linearGradient>
    <radialGradient
       cx="69.473244"
       cy="19.597878"
       r="3.5153139"
       fx="69.473244"
       fy="19.597878"
       id="radialGradient4363"
       xlink:href="#linearGradient6468"
       gradientUnits="userSpaceOnUse"
       gradientTransform="matrix(6.5917088,0,0,6.5917088,-398.87667,-59.773784)" />
    <linearGradient
       id="linearGradient6468">
      <stop
         style="stop-color:white;stop-opacity:1"
         offset="0"
         id="stop6470" />
      <stop
         style="stop-color:#b9b9b0;stop-opacity:1"
         offset="1"
         id="stop6472" />
    </linearGradient>
    <radialGradient
       cx="6.0242186"
       cy="25.271027"
       r="4.8310289"
       fx="6.0242186"
       fy="25.271027"
       id="radialGradient8548"
       xlink:href="#linearGradient8542"
       gradientUnits="userSpaceOnUse"
       gradientTransform="matrix(3.1203474,-1.8015334,2.1026855,3.6419625,-48.746407,7.0148329)" />
    <linearGradient
       id="linearGradient8542">
      <stop
         style="stop-color:#5b676b;stop-opacity:1"
         offset="0"
         id="stop8544" />
      <stop
         style="stop-color:#141718;stop-opacity:1"
         offset="1"
         id="stop8546" />
    </linearGradient>
    <linearGradient
       x1="6.3051529"
       y1="23.362427"
       x2="5.9846287"
       y2="31.57"
       id="linearGradient6458"
       xlink:href="#linearGradient8524"
       gradientUnits="userSpaceOnUse"
       gradientTransform="matrix(3.131609,-2.3455346,2.3455346,3.131609,-55.506161,35.319242)" />
    <radialGradient
       cx="69.473244"
       cy="19.597878"
       r="3.5153139"
       fx="69.473244"
       fy="19.597878"
       id="radialGradient6474"
       xlink:href="#linearGradient6468"
       gradientUnits="userSpaceOnUse"
       gradientTransform="matrix(7.7380916,0,0,7.7380916,-445.66588,-82.458218)" />
    <linearGradient
       x1="37.017639"
       y1="19.239889"
       x2="27.753893"
       y2="11.182488"
       id="linearGradient6957"
       xlink:href="#linearGradient6951"
       gradientUnits="userSpaceOnUse"
       gradientTransform="matrix(-0.44937095,-1.5253853,1.5253853,-0.44937095,127.40497,187.42198)" />
    <linearGradient
       id="linearGradient6951">
      <stop
         style="stop-color:#6e3d09;stop-opacity:1"
         offset="0"
         id="stop6953" />
      <stop
         style="stop-color:#ea8113;stop-opacity:1"
         offset="0.24242425"
         id="stop6959" />
      <stop
         style="stop-color:#5c3307;stop-opacity:1"
         offset="0.62121212"
         id="stop6961" />
      <stop
         style="stop-color:#e07c12;stop-opacity:1"
         offset="1"
         id="stop6955" />
    </linearGradient>
    <linearGradient
       x1="19.394735"
       y1="30.001331"
       x2="23.109331"
       y2="33.438831"
       id="linearGradient6945"
       xlink:href="#linearGradient6939"
       gradientUnits="userSpaceOnUse"
       gradientTransform="matrix(-0.44937095,-1.5253853,1.5253853,-0.44937095,120.48839,184.65534)" />
    <linearGradient
       id="linearGradient6939">
      <stop
         style="stop-color:#bdbdbd;stop-opacity:1"
         offset="0"
         id="stop6941" />
      <stop
         style="stop-color:#e2e2e2;stop-opacity:1"
         offset="0.33333334"
         id="stop6947" />
      <stop
         style="stop-color:#a3a3a3;stop-opacity:1"
         offset="0.66666669"
         id="stop6949" />
      <stop
         style="stop-color:#ddd;stop-opacity:1"
         offset="1"
         id="stop6943" />
    </linearGradient>
    <radialGradient
       cx="15.415101"
       cy="35.356506"
       r="7.5791559"
       fx="15.415101"
       fy="35.356506"
       id="radialGradient6969"
       xlink:href="#linearGradient6963"
       gradientUnits="userSpaceOnUse"
       gradientTransform="matrix(-0.706723,-2.3989643,2.337865,-0.68872344,94.68521,207.11021)" />
    <linearGradient
       id="linearGradient6963">
      <stop
         style="stop-color:#696969;stop-opacity:1"
         offset="0"
         id="stop6965" />
      <stop
         style="stop-color:black;stop-opacity:1"
         offset="1"
         id="stop6967" />
    </linearGradient>
    <linearGradient
       x1="13.236155"
       y1="37.752247"
       x2="7.7521091"
       y2="42.282146"
       id="linearGradient2452"
       xlink:href="#linearGradient8524"
       gradientUnits="userSpaceOnUse"
       gradientTransform="matrix(0.26339611,-1.3294834,1.3294834,0.26339611,123.99351,149.64763)" />
    <linearGradient
       x1="26.162951"
       y1="30.543303"
       x2="24.328892"
       y2="30.985245"
       id="linearGradient4330"
       xlink:href="#linearGradient6492"
       gradientUnits="userSpaceOnUse"
       gradientTransform="matrix(3.9126088,0,0,3.9126088,5.6840988,-3.1063777)" />
  </defs>
  <sodipodi:namedview
     id="base"
     pagecolor="#ffffff"
     bordercolor="#666666"
     borderopacity="1.0"
     inkscape:pageopacity="0.0"
     inkscape:pageshadow="2"
     inkscape:zoom="1.979899"
     inkscape:cx="34.938298"
     inkscape:cy="104.39666"
     inkscape:document-units="mm"
     inkscape:current-layer="layer1"
     inkscape:document-rotation="0"
     showgrid="false"
     inkscape:window-width="1888"
     inkscape:window-height="1018"
     inkscape:window-x="16"
     inkscape:window-y="16"
     inkscape:window-maximized="0"
     units="px" />
  <metadata
     id="metadata5">
    <rdf:RDF>
      <cc:Work
         rdf:about="">
        <dc:format>image/svg+xml</dc:format>
        <dc:type
           rdf:resource="http://purl.org/dc/dcmitype/StillImage" />
        <dc:title></dc:title>
      </cc:Work>
    </rdf:RDF>
  </metadata>
  <g
     inkscape:label="Layer 1"
     inkscape:groupmode="layer"
     id="layer1">
    <text
       xml:space="preserve"
       style="font-style:normal;font-weight:normal;font-size:31.75px;line-height:1.25;font-family:sans-serif;fill:#000000;fill-opacity:1;stroke:none;stroke-width:0.264583"
       x="21.369238"
       y="45.675423"
       id="text1616"><tspan
         sodipodi:role="line"
         id="tspan1614"
         x="21.369238"
         y="45.675423"
         style="font-style:normal;font-variant:normal;font-weight:normal;font-stretch:normal;font-size:31.75px;font-family:'SF Pro Display';-inkscape-font-specification:'SF Pro Display';fill:#d8dee9;fill-opacity:1;stroke-width:0.264583">.</tspan></text>
    <g
       id="g4486"
       transform="matrix(0.15582705,0,0,0.15582705,9.9765277,10.27936)">
      <path
         id="path4323"
         style="color:#000000;display:inline;overflow:visible;visibility:visible;fill:#979797;fill-opacity:1;fill-rule:evenodd;stroke:none;stroke-width:3.91261;stroke-linecap:butt;stroke-linejoin:miter;stroke-miterlimit:10;stroke-dasharray:none;stroke-dashoffset:0;stroke-opacity:1;marker:none;marker-start:none;marker-mid:none;marker-end:none"
         d="m 46.274946,45.675575 c 0,0 11.246829,23.192513 37.558079,22.538219 55.138495,-1.383315 64.807315,-30.146455 66.190625,-34.296405 1.38332,-4.149949 3.49996,-3.52134 3.98933,0.314053 17.98311,163.231298 -124.800217,93.195118 -129.871093,65.393464 28.357981,-8.299895 21.4414,-24.208034 21.4414,-24.208034 z"
         inkscape:connector-curvature="0" />
      <path
         id="path6480"
         style="color:#000000;display:inline;overflow:visible;visibility:visible;fill:#4a4a4a;fill-opacity:1;fill-rule:evenodd;stroke:none;stroke-width:3.91261;stroke-linecap:butt;stroke-linejoin:miter;stroke-miterlimit:10;stroke-dasharray:none;stroke-dashoffset:0;stroke-opacity:1;marker:none;marker-start:none;marker-mid:none;marker-end:none"
         d="m 67.259914,114.53031 c 26.36668,5.27356 39.793936,0.38379 47.652346,-5.68414 -2.07497,-2.68018 -5.61972,-5.61973 -5.61972,-5.61973 0,0 9.20761,2.55862 12.44985,6.74367 3.23295,4.17306 1.20042,6.74419 0.35432,12.08358 -1.88357,-4.68965 -5.39932,-6.44834 -5.87531,-8.31168 -7.06722,9.7695 -24.674635,9.36366 -48.961486,0.7883 z"
         inkscape:connector-curvature="0" />
      <path
         id="path4357"
         style="color:#000000;display:inline;overflow:visible;visibility:visible;fill:#d8d8d8;fill-opacity:1;fill-rule:evenodd;stroke:#888a85;stroke-width:3.91261;stroke-linecap:butt;stroke-linejoin:miter;stroke-miterlimit:10;stroke-dasharray:none;stroke-dashoffset:0;stroke-opacity:1;marker:none;marker-start:none;marker-mid:none;marker-end:none"
         d="m 74.978885,80.604343 a 15.908138,15.908138 0 1 1 -31.816275,0 15.908138,15.908138 0 1 1 31.816275,0 z"
         inkscape:connector-curvature="0" />
      <path
         id="path5198"
         style="color:#000000;display:inline;overflow:visible;visibility:visible;fill:#4a4a4a;fill-opacity:1;fill-rule:evenodd;stroke:none;stroke-width:3.91261;stroke-linecap:butt;stroke-linejoin:miter;stroke-miterlimit:10;stroke-dasharray:none;stroke-dashoffset:0;stroke-opacity:1;marker:none;marker-start:none;marker-mid:none;marker-end:none"
         d="M 43.288964,86.598109 A 23.862205,16.945623 54.192152 1 1 15.803717,106.42682 23.862205,16.945623 54.192152 1 1 43.288964,86.598109 Z"
         inkscape:connector-curvature="0" />
      <path
         id="path4359"
         style="color:#000000;display:inline;overflow:visible;visibility:visible;fill:#4a4a4a;fill-opacity:1;fill-rule:evenodd;stroke:#4a4a4a;stroke-width:3.91261;stroke-linecap:butt;stroke-linejoin:miter;stroke-miterlimit:10;stroke-dasharray:none;stroke-dashoffset:0;stroke-opacity:1;marker:none;marker-start:none;marker-mid:none;marker-end:none"
         d="m 70.450108,82.961084 a 7.659474,7.659474 0 1 1 -15.318947,0 7.659474,7.659474 0 1 1 15.318947,0 z"
         inkscape:connector-curvature="0" />
      <path
         id="path6446"
         style="color:#000000;display:inline;overflow:visible;visibility:visible;fill:#ffffff;fill-opacity:1;fill-rule:evenodd;stroke:none;stroke-width:3.91261;stroke-linecap:butt;stroke-linejoin:miter;stroke-miterlimit:10;stroke-dasharray:none;stroke-dashoffset:0;stroke-opacity:1;marker:none;marker-start:none;marker-mid:none;marker-end:none"
         d="m 28.508815,87.866719 a 6.9165807,8.2998961 0 1 1 -13.833161,0 6.9165807,8.2998961 0 1 1 13.833161,0 z"
         inkscape:connector-curvature="0" />
      <path
         id="path4361"
         style="color:#000000;display:inline;overflow:visible;visibility:visible;fill:#ffffff;fill-opacity:1;fill-rule:evenodd;stroke:none;stroke-width:2.99966;stroke-linecap:butt;stroke-linejoin:miter;stroke-miterlimit:10;stroke-dasharray:none;stroke-dashoffset:0;stroke-opacity:1;marker:none;marker-start:none;marker-mid:none;marker-end:none"
         d="m 65.147313,79.425879 a 5.3027072,5.3027072 0 1 1 -10.605414,0 5.3027072,5.3027072 0 1 1 10.605414,0 z"
         inkscape:connector-curvature="0" />
      <path
         id="path6462"
         style="color:#000000;display:inline;overflow:visible;visibility:visible;fill:#d8d8d8;fill-opacity:1;fill-rule:evenodd;stroke:#888a85;stroke-width:3.91261;stroke-linecap:butt;stroke-linejoin:miter;stroke-miterlimit:10;stroke-dasharray:none;stroke-dashoffset:0;stroke-opacity:1;marker:none;marker-start:none;marker-mid:none;marker-end:none"
         d="m 110.59924,82.33347 a 18.674768,18.674768 0 1 1 -37.349532,0 18.674768,18.674768 0 1 1 37.349532,0 z"
         inkscape:connector-curvature="0" />
      <path
         id="path6464"
         style="color:#000000;display:inline;overflow:visible;visibility:visible;fill:#4a4a4a;fill-opacity:1;fill-rule:evenodd;stroke:#4a4a4a;stroke-width:3.91261;stroke-linecap:butt;stroke-linejoin:miter;stroke-miterlimit:10;stroke-dasharray:none;stroke-dashoffset:0;stroke-opacity:1;marker:none;marker-start:none;marker-mid:none;marker-end:none"
         d="m 105.28287,85.100089 a 8.9915549,8.9915549 0 1 1 -17.983109,0 8.9915549,8.9915549 0 1 1 17.983109,0 z"
         inkscape:connector-curvature="0" />
      <path
         id="path6466"
         style="color:#000000;display:inline;overflow:visible;visibility:visible;fill:#ffffff;fill-opacity:1;fill-rule:evenodd;stroke:none;stroke-width:3.52135;stroke-linecap:butt;stroke-linejoin:miter;stroke-miterlimit:10;stroke-dasharray:none;stroke-dashoffset:0;stroke-opacity:1;marker:none;marker-start:none;marker-mid:none;marker-end:none"
         d="m 99.057941,80.950139 a 6.2249226,6.2249226 0 1 1 -12.449845,0 6.2249226,6.2249226 0 1 1 12.449845,0 z"
         inkscape:connector-curvature="0" />
      <path
         inkscape:connector-curvature="0"
         d="m 148.83449,138.10521 3.62462,-7.21828 c -13.48414,-9.865 -38.34087,-17.04298 -38.34087,-17.04298 -4.30864,-2.00697 -5.66839,1.86371 -2.68491,4.37987 0,0 21.25758,15.23948 37.40116,19.88139 z"
         style="color:#000000;display:inline;overflow:visible;visibility:visible;opacity:1;fill:#d3b69a;fill-opacity:1;fill-rule:nonzero;stroke:#8e6f60;stroke-width:3.91261;stroke-linecap:round;stroke-linejoin:miter;stroke-miterlimit:4;stroke-dasharray:none;stroke-dashoffset:0;stroke-opacity:1;marker:none;marker-start:none;marker-mid:none;marker-end:none"
         id="path6937" />
      <path
         inkscape:connector-curvature="0"
         d="m 166.12155,144.75865 1.94039,-4.29551 -15.05396,-9.64421 -1.20027,-0.1024 -0.51897,-1.66138 c -2.18682,1.3695 -5.36463,6.45674 -4.52206,9.31684 l 1.62593,-0.61496 0.88076,0.85122 z"
         style="color:#000000;display:inline;overflow:visible;visibility:visible;opacity:1;fill:#d8d8d8;fill-opacity:1;fill-rule:nonzero;stroke:#a0a5af;stroke-width:3.91261;stroke-linecap:round;stroke-linejoin:miter;stroke-miterlimit:4;stroke-dasharray:none;stroke-dashoffset:0;stroke-opacity:1;marker:none;marker-start:none;marker-mid:none;marker-end:none"
         id="path6935" />
      <path
         inkscape:connector-curvature="0"
         d="m 156.36565,136.61128 9.99487,4.2916"
         style="color:#000000;display:inline;overflow:visible;visibility:visible;opacity:1;fill:none;fill-opacity:1;fill-rule:nonzero;stroke:#ffffff;stroke-width:3.91261;stroke-linecap:round;stroke-linejoin:round;stroke-miterlimit:4;stroke-dasharray:none;stroke-dashoffset:0;stroke-opacity:1;marker:none;marker-start:none;marker-mid:none;marker-end:none"
         id="path6985" />
      <path
         inkscape:connector-curvature="0"
         d="m 188,163 c -4.69321,-15.93106 -6.3578,-28.58028 -18.6227,-27.45469 -9.88381,0.90707 -10.57577,15.06896 -0.36231,18.97689 C 178.85377,158.28677 188,163 188,163 Z"
         style="color:#000000;display:inline;overflow:visible;visibility:visible;opacity:1;fill:#4a4a4a;fill-opacity:1;fill-rule:nonzero;stroke:none;stroke-width:0.31804;stroke-linecap:round;stroke-linejoin:miter;stroke-miterlimit:4;stroke-dasharray:none;stroke-dashoffset:0;stroke-opacity:1;marker:none;marker-start:none;marker-mid:none;marker-end:none"
         id="path6933" />
      <path
         inkscape:connector-curvature="0"
         d="m 170.11221,136.83593 a 4.1144496,4.1144496 0 1 1 2.32539,7.8935 4.1144496,4.1144496 0 1 1 -2.32539,-7.8935 z"
         style="color:#000000;display:inline;overflow:visible;visibility:visible;opacity:0.527778;fill:#d8d8d8;fill-opacity:1;fill-rule:nonzero;stroke:none;stroke-width:3.29156;stroke-linecap:round;stroke-linejoin:miter;stroke-miterlimit:4;stroke-dasharray:none;stroke-dashoffset:0;stroke-opacity:1;marker:none;marker-start:none;marker-mid:none;marker-end:none"
         id="path6971" />
      <path
         inkscape:connector-curvature="0"
         d="m 152.17201,130.98098 a 2.7762278,2.7762278 0 1 1 1.56906,5.32614 2.7762278,2.7762278 0 1 1 -1.56906,-5.32614 z"
         style="color:#000000;display:inline;overflow:visible;visibility:visible;opacity:1;fill:#ffffff;fill-opacity:1;fill-rule:nonzero;stroke:none;stroke-width:2.22098;stroke-linecap:round;stroke-linejoin:miter;stroke-miterlimit:4;stroke-dasharray:none;stroke-dashoffset:0;stroke-opacity:1;marker:none;marker-start:none;marker-mid:none;marker-end:none"
         id="path6983" />
      <path
         inkscape:connector-curvature="0"
         d="m 182.10729,153.46731 c 0,0 -1.5285,-5.71912 -4.90244,-8.69556 -1.19368,-1.05306 0.31034,-2.60423 1.43675,-1.2419 2.43302,2.94259 3.46569,9.93746 3.46569,9.93746 z"
         style="color:#000000;display:inline;overflow:visible;visibility:visible;opacity:0.427778;fill:#d8d8d8;fill-opacity:1;fill-rule:nonzero;stroke:none;stroke-width:1.5902;stroke-linecap:round;stroke-linejoin:miter;stroke-miterlimit:4;stroke-dasharray:none;stroke-dashoffset:0;stroke-opacity:1;marker:none;marker-start:none;marker-mid:none;marker-end:none"
         id="path1571" />
    </g>
  </g>
</svg>
